<svg id="Layer_1" data-name="Layer 1" xmlns="http://www.w3.org/2000/svg" viewBox="0 0 195.84 163.57"><defs><style>.cls-1{font-size:20px;font-family:SourceSansPro-SemiBold, Source Sans Pro;font-weight:600;letter-spacing:0.14em;}.cls-2{letter-spacing:0.13em;}.cls-3{font-size:11px;font-family:SourceSansPro-Regular, Source Sans Pro;letter-spacing:0.06em;}</style></defs><path d="M92.65,69.53v3.32q10.16.53,13.39,3.33T109.27,89v81c0,5.07-.27,8.77-.88,10.91-1.54,5.42-8.93,9.59-11.3,9.78h1.78l2-.14c7.94-.33,12.48-3.56,18-9.1q8.66-8.65,8.66-26.68V89q0-9.27,3.1-12.38t13.52-3.72V69.53Z" transform="translate(-54.09 -69.53)"/><path d="M180.33,151.83l7.17,17.27a51,51,0,0,1,2.45,7,21.76,21.76,0,0,1,.87,4.62q0,3.93-2.27,4.93c-1.52.67-4.89,1.24-10.13,1.7v3.33H224v-3.33q-6.3-.87-9-3.27t-7.13-12.5L163.25,69.78h-3.57l-6.53,15.44" transform="translate(-54.09 -69.53)"/><path d="M165.22,88.54" transform="translate(-54.09 -69.53)"/><rect x="71.75" y="66.14" width="37.68" height="1.45"/><circle cx="30.36" cy="109.25" r="11.88"/><text class="cls-1" transform="translate(0 147.4) scale(1 0.91)">JOR<tspan class="cls-2" x="43.72" y="0">D</tspan><tspan x="58.86" y="0">AN ANDRIGO</tspan></text><text class="cls-3" transform="translate(55.74 160.35) scale(1.02 1)">WEB DESIGNER</text></svg>